# xmcd
#
# Track frame offsets:
#	180
#	14661
#	29276
#	51382
#	71433
#	87317
#	104761
#	123457
#	141494
#	152112
#	174299
#	190762
#	202961
#	221175
#	239626
#	250122
#	266282
#	279782
#	297532
#	311643
#
# Disc length: 4347 seconds
#
# Revision: 1
# Processed by: cddbd v1.5.1PL0 Copyright (c) Steve Scherf et al.
# Submitted via: audiograbber 1.82.01
#
DISCID=3410f914
DTITLE=Os Serranos - Dose Dupla 2
DYEAR=1991
DGENRE=Gaúcho
TTITLE0=A Damça do Chote
TTITLE1=Os 18 do Ambrósio
TTITLE2=Cnçaõ ao Mundo Novo
TTITLE3=Serrano Cantor
TTITLE4=A Voz de Derci Fagundes
TTITLE5=Bandeira dos Fortes
TTITLE6=Bailanta do Tibúrcio
TTITLE7=Carreta
TTITLE8=Saudade do Galpão
TTITLE9=Mais Andanças
TTITLE10=Bolicho do tio Candinho
TTITLE11=Prendinha Meu Amor
TTITLE12=Bugio dos Bailes
TTITLE13=Canção de Amor e Pampas
TTITLE14=Na Casa do Zédo Guincho
TTITLE15=Tchê Gaiteiro
TTITLE16=Os Bugios
TTITLE17=Milonga Oriental
TTITLE18=Vinte Anos de Luta e Glória
TTITLE19=Gaita Gaúcha
EXTD=
EXTT0=
EXTT1=
EXTT2=
EXTT3=
EXTT4=
EXTT5=
EXTT6=
EXTT7=
EXTT8=
EXTT9=
EXTT10=
EXTT11=
EXTT12=
EXTT13=
EXTT14=
EXTT15=
EXTT16=
EXTT17=
EXTT18=
EXTT19=
PLAYORDER=
